<mxfile host="app.diagrams.net" agent="Mozilla/5.0 (Macintosh; Intel Mac OS X 10_15_7) AppleWebKit/537.36 (KHTML, like Gecko) Chrome/138.0.0.0 Safari/537.36" version="28.0.7">
  <diagram name="Page-1" id="t8apHwmQ88hELKxgM1D_">
    <mxGraphModel dx="762" dy="480" grid="1" gridSize="10" guides="1" tooltips="1" connect="1" arrows="1" fold="1" page="1" pageScale="1" pageWidth="827" pageHeight="1169" background="none" math="0" shadow="1" adaptiveColors="auto">
      <root>
        <UserObject label="" animation="show BfAUJ_VTPkg-1Uyl0S6--9&#xa;wait 1000&#xa;show BfAUJ_VTPkg-1Uyl0S6--11&#xa;wait 1000&#xa;flow BfAUJ_VTPkg-1Uyl0S6--11 start&#xa;wait 1000&#xa;show BfAUJ_VTPkg-1Uyl0S6--10 fade&#xa;wait 1000&#xa;" id="0">
          <mxCell />
        </UserObject>
        <mxCell id="BfAUJ_VTPkg-1Uyl0S6--16" value="Pull code" parent="0" />
        <mxCell id="BfAUJ_VTPkg-1Uyl0S6--24" value="&lt;div&gt;Q: Design a product catalog system which can integrated to&amp;nbsp;&lt;/div&gt;" style="text;whiteSpace=wrap;overflow=hidden;rounded=0;html=1;textShadow=0;" vertex="1" parent="BfAUJ_VTPkg-1Uyl0S6--16">
          <mxGeometry x="80" y="120" width="300" height="90" as="geometry" />
        </mxCell>
      </root>
    </mxGraphModel>
  </diagram>
</mxfile>
